<?xml version="1.0" encoding="UTF-8"?>
<svg width="128" height="128" viewBox="0 0 128 128" xmlns="http://www.w3.org/2000/svg">
  <!-- Background -->
  <rect width="128" height="128" fill="#3B82F6" rx="12.8"/>
  
  <!-- City/Community Icon -->
  <g transform="translate(19.2, 25.6)">
    <!-- Buildings -->
    <rect x="6.4" y="38.4" width="19.2" height="38.4" fill="#FFFFFF" opacity="0.9"/>
    <rect x="32" y="25.6" width="19.2" height="51.2" fill="#FFFFFF" opacity="0.9"/>
    <rect x="57.6" y="32" width="19.2" height="44.8" fill="#FFFFFF" opacity="0.9"/>
    
    <!-- Windows -->
    <rect x="10.24" y="44.8" width="3.84" height="5.12" fill="#3B82F6"/>
    <rect x="17.92" y="44.8" width="3.84" height="5.12" fill="#3B82F6"/>
    <rect x="10.24" y="57.6" width="3.84" height="5.12" fill="#3B82F6"/>
    <rect x="17.92" y="57.6" width="3.84" height="5.12" fill="#3B82F6"/>
    
    <rect x="35.84" y="32" width="3.84" height="5.12" fill="#3B82F6"/>
    <rect x="43.52" y="32" width="3.84" height="5.12" fill="#3B82F6"/>
    <rect x="35.84" y="44.8" width="3.84" height="5.12" fill="#3B82F6"/>
    <rect x="43.52" y="44.8" width="3.84" height="5.12" fill="#3B82F6"/>
    
    <rect x="61.44" y="38.4" width="3.84" height="5.12" fill="#3B82F6"/>
    <rect x="69.12" y="38.4" width="3.84" height="5.12" fill="#3B82F6"/>
    <rect x="61.44" y="51.2" width="3.84" height="5.12" fill="#3B82F6"/>
    <rect x="69.12" y="51.2" width="3.84" height="5.12" fill="#3B82F6"/>
  </g>
  
  <!-- Text/Badge -->
  <text x="64" y="108.8" font-family="Arial, sans-serif" font-size="19.2" font-weight="bold" fill="#FFFFFF" text-anchor="middle">CIVIC</text>
</svg>