<?xml version="1.0" encoding="UTF-8"?>
<svg width="384" height="384" viewBox="0 0 384 384" xmlns="http://www.w3.org/2000/svg">
  <!-- Background -->
  <rect width="384" height="384" fill="#3B82F6" rx="38.400000000000006"/>
  
  <!-- City/Community Icon -->
  <g transform="translate(57.599999999999994, 76.80000000000001)">
    <!-- Buildings -->
    <rect x="19.200000000000003" y="115.19999999999999" width="57.599999999999994" height="115.19999999999999" fill="#FFFFFF" opacity="0.9"/>
    <rect x="96" y="76.80000000000001" width="57.599999999999994" height="153.60000000000002" fill="#FFFFFF" opacity="0.9"/>
    <rect x="172.8" y="96" width="57.599999999999994" height="134.39999999999998" fill="#FFFFFF" opacity="0.9"/>
    
    <!-- Windows -->
    <rect x="30.72" y="134.39999999999998" width="11.52" height="15.36" fill="#3B82F6"/>
    <rect x="53.760000000000005" y="134.39999999999998" width="11.52" height="15.36" fill="#3B82F6"/>
    <rect x="30.72" y="172.8" width="11.52" height="15.36" fill="#3B82F6"/>
    <rect x="53.760000000000005" y="172.8" width="11.52" height="15.36" fill="#3B82F6"/>
    
    <rect x="107.52000000000001" y="96" width="11.52" height="15.36" fill="#3B82F6"/>
    <rect x="130.56" y="96" width="11.52" height="15.36" fill="#3B82F6"/>
    <rect x="107.52000000000001" y="134.39999999999998" width="11.52" height="15.36" fill="#3B82F6"/>
    <rect x="130.56" y="134.39999999999998" width="11.52" height="15.36" fill="#3B82F6"/>
    
    <rect x="184.32" y="115.19999999999999" width="11.52" height="15.36" fill="#3B82F6"/>
    <rect x="207.36" y="115.19999999999999" width="11.52" height="15.36" fill="#3B82F6"/>
    <rect x="184.32" y="153.60000000000002" width="11.52" height="15.36" fill="#3B82F6"/>
    <rect x="207.36" y="153.60000000000002" width="11.52" height="15.36" fill="#3B82F6"/>
  </g>
  
  <!-- Text/Badge -->
  <text x="192" y="326.4" font-family="Arial, sans-serif" font-size="57.599999999999994" font-weight="bold" fill="#FFFFFF" text-anchor="middle">CIVIC</text>
</svg>