<?xml version="1.0" encoding="UTF-8"?>
<svg width="96" height="96" viewBox="0 0 96 96" xmlns="http://www.w3.org/2000/svg">
  <!-- Background -->
  <rect width="96" height="96" fill="#3B82F6" rx="9.600000000000001"/>
  
  <!-- City/Community Icon -->
  <g transform="translate(14.399999999999999, 19.200000000000003)">
    <!-- Buildings -->
    <rect x="4.800000000000001" y="28.799999999999997" width="14.399999999999999" height="28.799999999999997" fill="#FFFFFF" opacity="0.9"/>
    <rect x="24" y="19.200000000000003" width="14.399999999999999" height="38.400000000000006" fill="#FFFFFF" opacity="0.9"/>
    <rect x="43.2" y="24" width="14.399999999999999" height="33.599999999999994" fill="#FFFFFF" opacity="0.9"/>
    
    <!-- Windows -->
    <rect x="7.68" y="33.599999999999994" width="2.88" height="3.84" fill="#3B82F6"/>
    <rect x="13.440000000000001" y="33.599999999999994" width="2.88" height="3.84" fill="#3B82F6"/>
    <rect x="7.68" y="43.2" width="2.88" height="3.84" fill="#3B82F6"/>
    <rect x="13.440000000000001" y="43.2" width="2.88" height="3.84" fill="#3B82F6"/>
    
    <rect x="26.880000000000003" y="24" width="2.88" height="3.84" fill="#3B82F6"/>
    <rect x="32.64" y="24" width="2.88" height="3.84" fill="#3B82F6"/>
    <rect x="26.880000000000003" y="33.599999999999994" width="2.88" height="3.84" fill="#3B82F6"/>
    <rect x="32.64" y="33.599999999999994" width="2.88" height="3.84" fill="#3B82F6"/>
    
    <rect x="46.08" y="28.799999999999997" width="2.88" height="3.84" fill="#3B82F6"/>
    <rect x="51.84" y="28.799999999999997" width="2.88" height="3.84" fill="#3B82F6"/>
    <rect x="46.08" y="38.400000000000006" width="2.88" height="3.84" fill="#3B82F6"/>
    <rect x="51.84" y="38.400000000000006" width="2.88" height="3.84" fill="#3B82F6"/>
  </g>
  
  <!-- Text/Badge -->
  <text x="48" y="81.6" font-family="Arial, sans-serif" font-size="14.399999999999999" font-weight="bold" fill="#FFFFFF" text-anchor="middle">CIVIC</text>
</svg>