<?xml version="1.0" encoding="UTF-8"?>
<svg width="512" height="512" viewBox="0 0 512 512" xmlns="http://www.w3.org/2000/svg">
  <!-- Background -->
  <rect width="512" height="512" fill="#3B82F6" rx="51.2"/>
  
  <!-- City/Community Icon -->
  <g transform="translate(76.8, 102.4)">
    <!-- Buildings -->
    <rect x="25.6" y="153.6" width="76.8" height="153.6" fill="#FFFFFF" opacity="0.9"/>
    <rect x="128" y="102.4" width="76.8" height="204.8" fill="#FFFFFF" opacity="0.9"/>
    <rect x="230.4" y="128" width="76.8" height="179.2" fill="#FFFFFF" opacity="0.9"/>
    
    <!-- Windows -->
    <rect x="40.96" y="179.2" width="15.36" height="20.48" fill="#3B82F6"/>
    <rect x="71.68" y="179.2" width="15.36" height="20.48" fill="#3B82F6"/>
    <rect x="40.96" y="230.4" width="15.36" height="20.48" fill="#3B82F6"/>
    <rect x="71.68" y="230.4" width="15.36" height="20.48" fill="#3B82F6"/>
    
    <rect x="143.36" y="128" width="15.36" height="20.48" fill="#3B82F6"/>
    <rect x="174.08" y="128" width="15.36" height="20.48" fill="#3B82F6"/>
    <rect x="143.36" y="179.2" width="15.36" height="20.48" fill="#3B82F6"/>
    <rect x="174.08" y="179.2" width="15.36" height="20.48" fill="#3B82F6"/>
    
    <rect x="245.76" y="153.6" width="15.36" height="20.48" fill="#3B82F6"/>
    <rect x="276.48" y="153.6" width="15.36" height="20.48" fill="#3B82F6"/>
    <rect x="245.76" y="204.8" width="15.36" height="20.48" fill="#3B82F6"/>
    <rect x="276.48" y="204.8" width="15.36" height="20.48" fill="#3B82F6"/>
  </g>
  
  <!-- Text/Badge -->
  <text x="256" y="435.2" font-family="Arial, sans-serif" font-size="76.8" font-weight="bold" fill="#FFFFFF" text-anchor="middle">CIVIC</text>
</svg>