<?xml version="1.0" encoding="UTF-8"?>
<svg width="72" height="72" viewBox="0 0 72 72" xmlns="http://www.w3.org/2000/svg">
  <!-- Background -->
  <rect width="72" height="72" fill="#3B82F6" rx="7.2"/>
  
  <!-- City/Community Icon -->
  <g transform="translate(10.799999999999999, 14.4)">
    <!-- Buildings -->
    <rect x="3.6" y="21.599999999999998" width="10.799999999999999" height="21.599999999999998" fill="#FFFFFF" opacity="0.9"/>
    <rect x="18" y="14.4" width="10.799999999999999" height="28.8" fill="#FFFFFF" opacity="0.9"/>
    <rect x="32.4" y="18" width="10.799999999999999" height="25.2" fill="#FFFFFF" opacity="0.9"/>
    
    <!-- Windows -->
    <rect x="5.76" y="25.2" width="2.16" height="2.88" fill="#3B82F6"/>
    <rect x="10.080000000000002" y="25.2" width="2.16" height="2.88" fill="#3B82F6"/>
    <rect x="5.76" y="32.4" width="2.16" height="2.88" fill="#3B82F6"/>
    <rect x="10.080000000000002" y="32.4" width="2.16" height="2.88" fill="#3B82F6"/>
    
    <rect x="20.160000000000004" y="18" width="2.16" height="2.88" fill="#3B82F6"/>
    <rect x="24.48" y="18" width="2.16" height="2.88" fill="#3B82F6"/>
    <rect x="20.160000000000004" y="25.2" width="2.16" height="2.88" fill="#3B82F6"/>
    <rect x="24.48" y="25.2" width="2.16" height="2.88" fill="#3B82F6"/>
    
    <rect x="34.56" y="21.599999999999998" width="2.16" height="2.88" fill="#3B82F6"/>
    <rect x="38.88" y="21.599999999999998" width="2.16" height="2.88" fill="#3B82F6"/>
    <rect x="34.56" y="28.8" width="2.16" height="2.88" fill="#3B82F6"/>
    <rect x="38.88" y="28.8" width="2.16" height="2.88" fill="#3B82F6"/>
  </g>
  
  <!-- Text/Badge -->
  <text x="36" y="61.199999999999996" font-family="Arial, sans-serif" font-size="10.799999999999999" font-weight="bold" fill="#FFFFFF" text-anchor="middle">CIVIC</text>
</svg>