<?xml version="1.0" encoding="UTF-8"?>
<svg width="192" height="192" viewBox="0 0 192 192" xmlns="http://www.w3.org/2000/svg">
  <!-- Background -->
  <rect width="192" height="192" fill="#3B82F6" rx="19.200000000000003"/>
  
  <!-- City/Community Icon -->
  <g transform="translate(28.799999999999997, 38.400000000000006)">
    <!-- Buildings -->
    <rect x="9.600000000000001" y="57.599999999999994" width="28.799999999999997" height="57.599999999999994" fill="#FFFFFF" opacity="0.9"/>
    <rect x="48" y="38.400000000000006" width="28.799999999999997" height="76.80000000000001" fill="#FFFFFF" opacity="0.9"/>
    <rect x="86.4" y="48" width="28.799999999999997" height="67.19999999999999" fill="#FFFFFF" opacity="0.9"/>
    
    <!-- Windows -->
    <rect x="15.36" y="67.19999999999999" width="5.76" height="7.68" fill="#3B82F6"/>
    <rect x="26.880000000000003" y="67.19999999999999" width="5.76" height="7.68" fill="#3B82F6"/>
    <rect x="15.36" y="86.4" width="5.76" height="7.68" fill="#3B82F6"/>
    <rect x="26.880000000000003" y="86.4" width="5.76" height="7.68" fill="#3B82F6"/>
    
    <rect x="53.760000000000005" y="48" width="5.76" height="7.68" fill="#3B82F6"/>
    <rect x="65.28" y="48" width="5.76" height="7.68" fill="#3B82F6"/>
    <rect x="53.760000000000005" y="67.19999999999999" width="5.76" height="7.68" fill="#3B82F6"/>
    <rect x="65.28" y="67.19999999999999" width="5.76" height="7.68" fill="#3B82F6"/>
    
    <rect x="92.16" y="57.599999999999994" width="5.76" height="7.68" fill="#3B82F6"/>
    <rect x="103.68" y="57.599999999999994" width="5.76" height="7.68" fill="#3B82F6"/>
    <rect x="92.16" y="76.80000000000001" width="5.76" height="7.68" fill="#3B82F6"/>
    <rect x="103.68" y="76.80000000000001" width="5.76" height="7.68" fill="#3B82F6"/>
  </g>
  
  <!-- Text/Badge -->
  <text x="96" y="163.2" font-family="Arial, sans-serif" font-size="28.799999999999997" font-weight="bold" fill="#FFFFFF" text-anchor="middle">CIVIC</text>
</svg>