<?xml version="1.0" encoding="UTF-8"?>
<svg width="16" height="16" viewBox="0 0 16 16" xmlns="http://www.w3.org/2000/svg">
  <!-- Background -->
  <rect width="16" height="16" fill="#3B82F6" rx="1.6"/>
  
  <!-- City/Community Icon -->
  <g transform="translate(2.4, 3.2)">
    <!-- Buildings -->
    <rect x="0.8" y="4.8" width="2.4" height="4.8" fill="#FFFFFF" opacity="0.9"/>
    <rect x="4" y="3.2" width="2.4" height="6.4" fill="#FFFFFF" opacity="0.9"/>
    <rect x="7.2" y="4" width="2.4" height="5.6" fill="#FFFFFF" opacity="0.9"/>
    
    <!-- Windows -->
    <rect x="1.28" y="5.6" width="0.48" height="0.64" fill="#3B82F6"/>
    <rect x="2.24" y="5.6" width="0.48" height="0.64" fill="#3B82F6"/>
    <rect x="1.28" y="7.2" width="0.48" height="0.64" fill="#3B82F6"/>
    <rect x="2.24" y="7.2" width="0.48" height="0.64" fill="#3B82F6"/>
    
    <rect x="4.48" y="4" width="0.48" height="0.64" fill="#3B82F6"/>
    <rect x="5.44" y="4" width="0.48" height="0.64" fill="#3B82F6"/>
    <rect x="4.48" y="5.6" width="0.48" height="0.64" fill="#3B82F6"/>
    <rect x="5.44" y="5.6" width="0.48" height="0.64" fill="#3B82F6"/>
    
    <rect x="7.68" y="4.8" width="0.48" height="0.64" fill="#3B82F6"/>
    <rect x="8.64" y="4.8" width="0.48" height="0.64" fill="#3B82F6"/>
    <rect x="7.68" y="6.4" width="0.48" height="0.64" fill="#3B82F6"/>
    <rect x="8.64" y="6.4" width="0.48" height="0.64" fill="#3B82F6"/>
  </g>
  
  <!-- Text/Badge -->
  <text x="8" y="13.6" font-family="Arial, sans-serif" font-size="2.4" font-weight="bold" fill="#FFFFFF" text-anchor="middle">CIVIC</text>
</svg>