<?xml version="1.0" encoding="UTF-8"?>
<svg width="144" height="144" viewBox="0 0 144 144" xmlns="http://www.w3.org/2000/svg">
  <!-- Background -->
  <rect width="144" height="144" fill="#3B82F6" rx="14.4"/>
  
  <!-- City/Community Icon -->
  <g transform="translate(21.599999999999998, 28.8)">
    <!-- Buildings -->
    <rect x="7.2" y="43.199999999999996" width="21.599999999999998" height="43.199999999999996" fill="#FFFFFF" opacity="0.9"/>
    <rect x="36" y="28.8" width="21.599999999999998" height="57.6" fill="#FFFFFF" opacity="0.9"/>
    <rect x="64.8" y="36" width="21.599999999999998" height="50.4" fill="#FFFFFF" opacity="0.9"/>
    
    <!-- Windows -->
    <rect x="11.52" y="50.4" width="4.32" height="5.76" fill="#3B82F6"/>
    <rect x="20.160000000000004" y="50.4" width="4.32" height="5.76" fill="#3B82F6"/>
    <rect x="11.52" y="64.8" width="4.32" height="5.76" fill="#3B82F6"/>
    <rect x="20.160000000000004" y="64.8" width="4.32" height="5.76" fill="#3B82F6"/>
    
    <rect x="40.32000000000001" y="36" width="4.32" height="5.76" fill="#3B82F6"/>
    <rect x="48.96" y="36" width="4.32" height="5.76" fill="#3B82F6"/>
    <rect x="40.32000000000001" y="50.4" width="4.32" height="5.76" fill="#3B82F6"/>
    <rect x="48.96" y="50.4" width="4.32" height="5.76" fill="#3B82F6"/>
    
    <rect x="69.12" y="43.199999999999996" width="4.32" height="5.76" fill="#3B82F6"/>
    <rect x="77.76" y="43.199999999999996" width="4.32" height="5.76" fill="#3B82F6"/>
    <rect x="69.12" y="57.6" width="4.32" height="5.76" fill="#3B82F6"/>
    <rect x="77.76" y="57.6" width="4.32" height="5.76" fill="#3B82F6"/>
  </g>
  
  <!-- Text/Badge -->
  <text x="72" y="122.39999999999999" font-family="Arial, sans-serif" font-size="21.599999999999998" font-weight="bold" fill="#FFFFFF" text-anchor="middle">CIVIC</text>
</svg>